{
  "accessors": [
    {
      "bufferView": 2,
      "componentType": 5126,
      "count": 508,
      "max": [
        336.34661865234375,
        518.55780029296875,
        388.80776977539062
      ],
      "min": [
        -336.34661865234375,
        -518.55780029296875,
        -388.80776977539062
      ],
      "type": "VEC3"
    },
    {
      "bufferView": 2,
      "byteOffset": 6096,
      "componentType": 5126,
      "count": 508,
      "max": [
        0.98768562078475952,
        0.99968588352203369,
        0.94674104452133179
      ],
      "min": [
        -0.97472935914993286,
        -0.99953961372375488,
        -0.92979884147644043
      ],
      "type": "VEC3"
    },
    {
      "bufferView": 1,
      "componentType": 5126,
      "count": 508,
      "max": [
        0.94678795337677002,
        0.84246909618377686
      ],
      "min": [
        0.13386991620063782,
        0.14442263543605804
      ],
      "type": "VEC2"
    },
    {
      "bufferView": 0,
      "componentType": 5125,
      "count": 744,
      "max": [
        507
      ],
      "min": [
        0
      ],
      "type": "SCALAR"
    },
    {
      "bufferView": 2,
      "byteOffset": 12192,
      "componentType": 5126,
      "count": 8128,
      "max": [
        288.29788208007812,
        496.76223754882812,
        352.23556518554688
      ],
      "min": [
        -314.13009643554688,
        -509.9940185546875,
        -348.71841430664062
      ],
      "type": "VEC3"
    },
    {
      "bufferView": 2,
      "byteOffset": 109728,
      "componentType": 5126,
      "count": 8128,
      "max": [
        0.99945396184921265,
        0.99968981742858887,
        0.99852955341339111
      ],
      "min": [
        -0.99923509359359741,
        -0.99997276067733765,
        -0.99910193681716919
      ],
      "type": "VEC3"
    },
    {
      "bufferView": 1,
      "byteOffset": 4064,
      "componentType": 5126,
      "count": 8128,
      "max": [
        0.94003766775131226,
        0.83150815963745117
      ],
      "min": [
        0.14010746777057648,
        0.14503586292266846
      ],
      "type": "VEC2"
    },
    {
      "bufferView": 0,
      "byteOffset": 2976,
      "componentType": 5125,
      "count": 12192,
      "max": [
        8127
      ],
      "min": [
        0
      ],
      "type": "SCALAR"
    },
    {
      "bufferView": 2,
      "byteOffset": 207264,
      "componentType": 5126,
      "count": 32512,
      "max": [
        288.29788208007812,
        497.24273681640625,
        352.23556518554688
      ],
      "min": [
        -314.6064453125,
        -509.9940185546875,
        -349.56735229492188
      ],
      "type": "VEC3"
    },
    {
      "bufferView": 2,
      "byteOffset": 597408,
      "componentType": 5126,
      "count": 32512,
      "max": [
        0.99998372793197632,
        0.99999445676803589,
        0.99996489286422729
      ],
      "min": [
        -0.99960786104202271,
        -0.99998593330383301,
        -0.99893605709075928
      ],
      "type": "VEC3"
    },
    {
      "bufferView": 1,
      "byteOffset": 69088,
      "componentType": 5126,
      "count": 32512,
      "max": [
        0.94023811817169189,
        0.83172392845153809
      ],
      "min": [
        0.14010746777057648,
        0.14503586292266846
      ],
      "type": "VEC2"
    },
    {
      "bufferView": 0,
      "byteOffset": 51744,
      "componentType": 5125,
      "count": 48768,
      "max": [
        32511
      ],
      "min": [
        0
      ],
      "type": "SCALAR"
    },
    {
      "bufferView": 2,
      "byteOffset": 987552,
      "componentType": 5126,
      "count": 65532,
      "max": [
        288.29788208007812,
        496.76223754882812,
        351.43936157226562
      ],
      "min": [
        -313.98995971679688,
        -455.35110473632812,
        -349.66043090820312
      ],
      "type": "VEC3"
    },
    {
      "bufferView": 2,
      "byteOffset": 1773936,
      "componentType": 5126,
      "count": 65532,
      "max": [
        0.9999658465385437,
        0.99999481439590454,
        0.99995136260986328
      ],
      "min": [
        -0.99982953071594238,
        -0.98064380884170532,
        -0.99994009733200073
      ],
      "type": "VEC3"
    },
    {
      "bufferView": 1,
      "byteOffset": 329184,
      "componentType": 5126,
      "count": 65532,
      "max": [
        0.94023811817169189,
        0.83172392845153809
      ],
      "min": [
        0.14010746777057648,
        0.25698721408843994
      ],
      "type": "VEC2"
    },
    {
      "bufferView": 0,
      "byteOffset": 246816,
      "componentType": 5125,
      "count": 98298,
      "max": [
        65531
      ],
      "min": [
        0
      ],
      "type": "SCALAR"
    },
    {
      "bufferView": 2,
      "byteOffset": 2560320,
      "componentType": 5126,
      "count": 64516,
      "max": [
        248.90945434570312,
        497.24273681640625,
        352.51181030273438
      ],
      "min": [
        -314.6064453125,
        -510.05178833007812,
        -337.28271484375
      ],
      "type": "VEC3"
    },
    {
      "bufferView": 2,
      "byteOffset": 3334512,
      "componentType": 5126,
      "count": 64516,
      "max": [
        0.99948710203170776,
        0.99999916553497314,
        0.99978137016296387
      ],
      "min": [
        -0.99992072582244873,
        -1,
        -0.99984705448150635
      ],
      "type": "VEC3"
    },
    {
      "bufferView": 1,
      "byteOffset": 853440,
      "componentType": 5126,
      "count": 64516,
      "max": [
        0.93421465158462524,
        0.78096389770507812
      ],
      "min": [
        0.16672629117965698,
        0.14503586292266846
      ],
      "type": "VEC2"
    },
    {
      "bufferView": 0,
      "byteOffset": 640008,
      "componentType": 5125,
      "count": 96774,
      "max": [
        64515
      ],
      "min": [
        0
      ],
      "type": "SCALAR"
    }
  ],
  "asset": {
    "extras": {
      "author": "Gohar.Munir (https://sketchfab.com/Gohar.Munir)",
      "license": "CC-BY-4.0 (http://creativecommons.org/licenses/by/4.0/)",
      "source": "https://sketchfab.com/3d-models/boxing-gloves-right-handed-1ae09e8e4959418b9c4274f9515c5d29",
      "title": "Boxing Gloves - Right Handed"
    },
    "generator": "Sketchfab-9.94.0",
    "version": "2.0"
  },
  "bufferViews": [
    {
      "buffer": 0,
      "byteLength": 1027104,
      "byteOffset": 0,
      "name": "floatBufferViews",
      "target": 34963
    },
    {
      "buffer": 0,
      "byteLength": 1369568,
      "byteOffset": 1027104,
      "byteStride": 8,
      "name": "floatBufferViews",
      "target": 34962
    },
    {
      "buffer": 0,
      "byteLength": 4108704,
      "byteOffset": 2396672,
      "byteStride": 12,
      "name": "floatBufferViews",
      "target": 34962
    }
  ],
  "buffers": [
    {
      "byteLength": 6505376,
      "uri": "scene.bin"
    }
  ],
  "images": [
    {
      "uri": "textures/Glove_Material_baseColor.png"
    }
  ],
  "materials": [
    {
      "doubleSided": true,
      "emissiveFactor": [
        0,
        0,
        0
      ],
      "name": "Glove_Material",
      "pbrMetallicRoughness": {
        "baseColorFactor": [
          1,
          1,
          1,
          1
        ],
        "baseColorTexture": {
          "index": 0,
          "texCoord": 0
        },
        "metallicFactor": 0,
        "roughnessFactor": 0.78852574731188718
      }
    }
  ],
  "meshes": [
    {
      "name": "Boxing Glove.001_Glove Material_0",
      "primitives": [
        {
          "attributes": {
            "NORMAL": 1,
            "POSITION": 0,
            "TEXCOORD_0": 2
          },
          "indices": 3,
          "material": 0,
          "mode": 4
        }
      ]
    },
    {
      "name": "Boxing Glove.002_Glove Material_0",
      "primitives": [
        {
          "attributes": {
            "NORMAL": 5,
            "POSITION": 4,
            "TEXCOORD_0": 6
          },
          "indices": 7,
          "material": 0,
          "mode": 4
        }
      ]
    },
    {
      "name": "Boxing Glove.003_Glove Material_0",
      "primitives": [
        {
          "attributes": {
            "NORMAL": 9,
            "POSITION": 8,
            "TEXCOORD_0": 10
          },
          "indices": 11,
          "material": 0,
          "mode": 4
        }
      ]
    },
    {
      "name": "Boxing Glove.004_Glove Material_0",
      "primitives": [
        {
          "attributes": {
            "NORMAL": 13,
            "POSITION": 12,
            "TEXCOORD_0": 14
          },
          "indices": 15,
          "material": 0,
          "mode": 4
        }
      ]
    },
    {
      "name": "Boxing Glove.004_Glove Material_0",
      "primitives": [
        {
          "attributes": {
            "NORMAL": 17,
            "POSITION": 16,
            "TEXCOORD_0": 18
          },
          "indices": 19,
          "material": 0,
          "mode": 4
        }
      ]
    }
  ],
  "nodes": [
    {
      "children": [
        1
      ],
      "name": "RootNode (gltf orientation matrix)",
      "rotation": [
        -0.70710678118654746,
        -0,
        -0,
        0.70710678118654757
      ]
    },
    {
      "children": [
        2
      ],
      "name": "RootNode (model correction matrix)"
    },
    {
      "children": [
        3
      ],
      "matrix": [
        1,
        0,
        0,
        0,
        0,
        0,
        1,
        0,
        0,
        -1,
        0,
        0,
        0,
        0,
        0,
        1
      ],
      "name": "Boxing Glove.fbx"
    },
    {
      "children": [
        4,
        6,
        8,
        10
      ],
      "name": "RootNode"
    },
    {
      "children": [
        5
      ],
      "matrix": [
        1,
        0,
        0,
        0,
        0,
        1,
        0,
        0,
        0,
        0,
        1,
        0,
        34.803413391113281,
        488.57131958007812,
        1347.744140625,
        1
      ],
      "name": "Boxing Glove.001"
    },
    {
      "mesh": 0,
      "name": "Boxing Glove.001_Glove Material_0"
    },
    {
      "children": [
        7
      ],
      "matrix": [
        1,
        0,
        0,
        0,
        0,
        1,
        0,
        0,
        0,
        0,
        1,
        0,
        34.803413391113281,
        488.57131958007812,
        447.74404907226562,
        1
      ],
      "name": "Boxing Glove.002"
    },
    {
      "mesh": 1,
      "name": "Boxing Glove.002_Glove Material_0"
    },
    {
      "children": [
        9
      ],
      "matrix": [
        1,
        0,
        0,
        0,
        0,
        1,
        0,
        0,
        0,
        0,
        1,
        0,
        34.803413391113281,
        488.57131958007812,
        -452.25595092773438,
        1
      ],
      "name": "Boxing Glove.003"
    },
    {
      "mesh": 2,
      "name": "Boxing Glove.003_Glove Material_0"
    },
    {
      "children": [
        11,
        12
      ],
      "matrix": [
        1,
        0,
        0,
        0,
        0,
        1,
        0,
        0,
        0,
        0,
        1,
        0,
        34.803413391113281,
        488.57131958007812,
        -1352.2559814453125,
        1
      ],
      "name": "Boxing Glove.004"
    },
    {
      "mesh": 3,
      "name": "Boxing Glove.004_Glove Material_0"
    },
    {
      "mesh": 4,
      "name": "Boxing Glove.004_Glove Material_0"
    }
  ],
  "samplers": [
    {
      "magFilter": 9729,
      "minFilter": 9987,
      "wrapS": 10497,
      "wrapT": 10497
    }
  ],
  "scene": 0,
  "scenes": [
    {
      "name": "OSG_Scene",
      "nodes": [
        0
      ]
    }
  ],
  "textures": [
    {
      "sampler": 0,
      "source": 0
    }
  ]
}

